<mxfile host="app.diagrams.net" modified="2023-03-03T07:41:54.341Z" agent="5.0 (Macintosh; Intel Mac OS X 10_15_7) AppleWebKit/537.36 (KHTML, like Gecko) Chrome/110.0.0.0 Safari/537.36" etag="6llVRJIx-cxFEwrGLtGK" version="21.0.1" type="github">
  <diagram name="第 1 页" id="JLIDf0e1DJFyFmKzr0PZ">
    <mxGraphModel dx="1194" dy="727" grid="1" gridSize="10" guides="1" tooltips="1" connect="1" arrows="1" fold="1" page="1" pageScale="1" pageWidth="827" pageHeight="1169" math="0" shadow="0">
      <root>
        <mxCell id="0" />
        <mxCell id="1" parent="0" />
        <mxCell id="6hzJFKLqSvzQCjT4C_rZ-24" value="" style="rounded=1;whiteSpace=wrap;html=1;shadow=0;glass=0;sketch=0;strokeColor=#d79b00;fillColor=#ffe6cc;" parent="1" vertex="1">
          <mxGeometry x="40" y="200" width="720" height="340" as="geometry" />
        </mxCell>
        <mxCell id="6hzJFKLqSvzQCjT4C_rZ-15" value="" style="rounded=1;whiteSpace=wrap;html=1;shadow=0;glass=0;sketch=0;strokeColor=#6c8ebf;fillColor=#dae8fc;" parent="1" vertex="1">
          <mxGeometry x="40" y="120" width="360" height="60" as="geometry" />
        </mxCell>
        <mxCell id="6hzJFKLqSvzQCjT4C_rZ-53" value="" style="rounded=1;whiteSpace=wrap;html=1;shadow=0;glass=0;sketch=0;strokeColor=#6c8ebf;fillColor=#dae8fc;" parent="1" vertex="1">
          <mxGeometry x="240" y="230" width="270" height="290" as="geometry" />
        </mxCell>
        <mxCell id="6hzJFKLqSvzQCjT4C_rZ-5" value="" style="rounded=1;whiteSpace=wrap;html=1;shadow=0;glass=0;sketch=0;strokeColor=#82b366;fillColor=#d5e8d4;" parent="1" vertex="1">
          <mxGeometry x="40" y="40" width="360" height="60" as="geometry" />
        </mxCell>
        <mxCell id="6hzJFKLqSvzQCjT4C_rZ-6" value="" style="rounded=1;whiteSpace=wrap;html=1;shadow=0;glass=0;sketch=0;strokeColor=#d79b00;fillColor=#ffe6cc;" parent="1" vertex="1">
          <mxGeometry x="440" y="40" width="320" height="60" as="geometry" />
        </mxCell>
        <mxCell id="6hzJFKLqSvzQCjT4C_rZ-7" value="WEB" style="text;html=1;strokeColor=none;fillColor=none;align=center;verticalAlign=middle;whiteSpace=wrap;rounded=0;" parent="1" vertex="1">
          <mxGeometry x="40" y="42" width="40" height="20" as="geometry" />
        </mxCell>
        <mxCell id="6hzJFKLqSvzQCjT4C_rZ-8" value="商户接口" style="text;html=1;strokeColor=none;fillColor=none;align=center;verticalAlign=middle;whiteSpace=wrap;rounded=0;" parent="1" vertex="1">
          <mxGeometry x="440" y="41" width="50" height="20" as="geometry" />
        </mxCell>
        <mxCell id="6hzJFKLqSvzQCjT4C_rZ-94" style="edgeStyle=orthogonalEdgeStyle;rounded=0;orthogonalLoop=1;jettySize=auto;html=1;entryX=0.5;entryY=0;entryDx=0;entryDy=0;" parent="1" source="6hzJFKLqSvzQCjT4C_rZ-10" target="6hzJFKLqSvzQCjT4C_rZ-19" edge="1">
          <mxGeometry relative="1" as="geometry" />
        </mxCell>
        <mxCell id="6hzJFKLqSvzQCjT4C_rZ-10" value="admin平台" style="rounded=0;whiteSpace=wrap;html=1;shadow=0;glass=0;sketch=0;strokeColor=default;gradientColor=none;" parent="1" vertex="1">
          <mxGeometry x="90" y="50" width="100" height="40" as="geometry" />
        </mxCell>
        <mxCell id="6hzJFKLqSvzQCjT4C_rZ-95" style="edgeStyle=orthogonalEdgeStyle;rounded=0;orthogonalLoop=1;jettySize=auto;html=1;entryX=0.5;entryY=0;entryDx=0;entryDy=0;" parent="1" source="6hzJFKLqSvzQCjT4C_rZ-11" target="6hzJFKLqSvzQCjT4C_rZ-20" edge="1">
          <mxGeometry relative="1" as="geometry" />
        </mxCell>
        <mxCell id="6hzJFKLqSvzQCjT4C_rZ-11" value="商户平台" style="rounded=0;whiteSpace=wrap;html=1;shadow=0;glass=0;sketch=0;strokeColor=default;gradientColor=none;" parent="1" vertex="1">
          <mxGeometry x="210" y="50" width="100" height="40" as="geometry" />
        </mxCell>
        <mxCell id="6hzJFKLqSvzQCjT4C_rZ-90" style="edgeStyle=orthogonalEdgeStyle;rounded=0;orthogonalLoop=1;jettySize=auto;html=1;entryX=0.5;entryY=0;entryDx=0;entryDy=0;" parent="1" source="6hzJFKLqSvzQCjT4C_rZ-13" target="6hzJFKLqSvzQCjT4C_rZ-69" edge="1">
          <mxGeometry relative="1" as="geometry">
            <Array as="points">
              <mxPoint x="410" y="70" />
              <mxPoint x="410" y="220" />
              <mxPoint x="308" y="220" />
            </Array>
          </mxGeometry>
        </mxCell>
        <mxCell id="6hzJFKLqSvzQCjT4C_rZ-13" value="短信发送接口" style="rounded=0;whiteSpace=wrap;html=1;shadow=0;glass=0;sketch=0;strokeColor=default;gradientColor=none;" parent="1" vertex="1">
          <mxGeometry x="504" y="50" width="80" height="40" as="geometry" />
        </mxCell>
        <mxCell id="6hzJFKLqSvzQCjT4C_rZ-14" value="商户状态报告及上行接口" style="rounded=0;whiteSpace=wrap;html=1;shadow=0;glass=0;sketch=0;strokeColor=default;gradientColor=none;" parent="1" vertex="1">
          <mxGeometry x="609" y="50" width="80" height="40" as="geometry" />
        </mxCell>
        <mxCell id="6hzJFKLqSvzQCjT4C_rZ-16" value="" style="rounded=1;whiteSpace=wrap;html=1;shadow=0;glass=0;sketch=0;strokeColor=#b85450;fillColor=#f8cecc;" parent="1" vertex="1">
          <mxGeometry x="440" y="120" width="320" height="60" as="geometry" />
        </mxCell>
        <mxCell id="6hzJFKLqSvzQCjT4C_rZ-17" value="BFF" style="text;html=1;strokeColor=none;fillColor=none;align=center;verticalAlign=middle;whiteSpace=wrap;rounded=0;" parent="1" vertex="1">
          <mxGeometry x="40" y="122" width="40" height="20" as="geometry" />
        </mxCell>
        <mxCell id="6hzJFKLqSvzQCjT4C_rZ-18" value="通道" style="text;html=1;strokeColor=none;fillColor=none;align=center;verticalAlign=middle;whiteSpace=wrap;rounded=0;" parent="1" vertex="1">
          <mxGeometry x="440" y="121" width="50" height="20" as="geometry" />
        </mxCell>
        <mxCell id="6hzJFKLqSvzQCjT4C_rZ-96" style="edgeStyle=orthogonalEdgeStyle;rounded=0;orthogonalLoop=1;jettySize=auto;html=1;entryX=0.25;entryY=0;entryDx=0;entryDy=0;exitX=0.5;exitY=1;exitDx=0;exitDy=0;" parent="1" source="6hzJFKLqSvzQCjT4C_rZ-19" target="6hzJFKLqSvzQCjT4C_rZ-67" edge="1">
          <mxGeometry relative="1" as="geometry">
            <mxPoint x="140" y="180" as="sourcePoint" />
            <mxPoint x="140" y="220" as="targetPoint" />
          </mxGeometry>
        </mxCell>
        <mxCell id="6hzJFKLqSvzQCjT4C_rZ-19" value="admin后台" style="rounded=0;whiteSpace=wrap;html=1;shadow=0;glass=0;sketch=0;strokeColor=default;gradientColor=none;" parent="1" vertex="1">
          <mxGeometry x="90" y="130" width="100" height="40" as="geometry" />
        </mxCell>
        <mxCell id="6hzJFKLqSvzQCjT4C_rZ-97" style="edgeStyle=orthogonalEdgeStyle;rounded=0;orthogonalLoop=1;jettySize=auto;html=1;" parent="1" source="6hzJFKLqSvzQCjT4C_rZ-20" target="6hzJFKLqSvzQCjT4C_rZ-67" edge="1">
          <mxGeometry relative="1" as="geometry" />
        </mxCell>
        <mxCell id="6hzJFKLqSvzQCjT4C_rZ-20" value="商户后台" style="rounded=0;whiteSpace=wrap;html=1;shadow=0;glass=0;sketch=0;strokeColor=default;gradientColor=none;" parent="1" vertex="1">
          <mxGeometry x="210" y="130" width="100" height="40" as="geometry" />
        </mxCell>
        <mxCell id="6hzJFKLqSvzQCjT4C_rZ-21" value="CMPP" style="rounded=0;whiteSpace=wrap;html=1;shadow=0;glass=0;sketch=0;strokeColor=default;gradientColor=none;" parent="1" vertex="1">
          <mxGeometry x="500" y="130" width="50" height="40" as="geometry" />
        </mxCell>
        <mxCell id="6hzJFKLqSvzQCjT4C_rZ-22" value="SGIP" style="rounded=0;whiteSpace=wrap;html=1;shadow=0;glass=0;sketch=0;strokeColor=default;gradientColor=none;" parent="1" vertex="1">
          <mxGeometry x="573" y="130" width="50" height="40" as="geometry" />
        </mxCell>
        <mxCell id="6hzJFKLqSvzQCjT4C_rZ-23" value="SMGP" style="rounded=0;whiteSpace=wrap;html=1;shadow=0;glass=0;sketch=0;strokeColor=default;gradientColor=none;" parent="1" vertex="1">
          <mxGeometry x="647" y="130" width="50" height="40" as="geometry" />
        </mxCell>
        <mxCell id="6hzJFKLqSvzQCjT4C_rZ-42" value="" style="rounded=1;whiteSpace=wrap;html=1;shadow=0;glass=0;sketch=0;strokeColor=#9673a6;fillColor=#e1d5e7;" parent="1" vertex="1">
          <mxGeometry x="40" y="560" width="360" height="60" as="geometry" />
        </mxCell>
        <mxCell id="6hzJFKLqSvzQCjT4C_rZ-43" value="" style="rounded=1;whiteSpace=wrap;html=1;shadow=0;glass=0;sketch=0;strokeColor=#666666;fillColor=#f5f5f5;fontColor=#333333;" parent="1" vertex="1">
          <mxGeometry x="440" y="560" width="320" height="60" as="geometry" />
        </mxCell>
        <mxCell id="6hzJFKLqSvzQCjT4C_rZ-44" value="数据" style="text;html=1;strokeColor=none;fillColor=none;align=center;verticalAlign=middle;whiteSpace=wrap;rounded=0;" parent="1" vertex="1">
          <mxGeometry x="40" y="562" width="40" height="20" as="geometry" />
        </mxCell>
        <mxCell id="6hzJFKLqSvzQCjT4C_rZ-45" value="其它服务" style="text;html=1;strokeColor=none;fillColor=none;align=center;verticalAlign=middle;whiteSpace=wrap;rounded=0;" parent="1" vertex="1">
          <mxGeometry x="440" y="561" width="50" height="20" as="geometry" />
        </mxCell>
        <mxCell id="6hzJFKLqSvzQCjT4C_rZ-46" value="redis" style="rounded=0;whiteSpace=wrap;html=1;shadow=0;glass=0;sketch=0;strokeColor=default;gradientColor=none;" parent="1" vertex="1">
          <mxGeometry x="80" y="570" width="60" height="40" as="geometry" />
        </mxCell>
        <mxCell id="6hzJFKLqSvzQCjT4C_rZ-47" value="MYSQL" style="rounded=0;whiteSpace=wrap;html=1;shadow=0;glass=0;sketch=0;strokeColor=default;gradientColor=none;" parent="1" vertex="1">
          <mxGeometry x="160" y="570" width="60" height="40" as="geometry" />
        </mxCell>
        <mxCell id="6hzJFKLqSvzQCjT4C_rZ-48" value="监控服务" style="rounded=0;whiteSpace=wrap;html=1;shadow=0;glass=0;sketch=0;strokeColor=default;gradientColor=none;" parent="1" vertex="1">
          <mxGeometry x="503" y="570" width="80" height="40" as="geometry" />
        </mxCell>
        <mxCell id="6hzJFKLqSvzQCjT4C_rZ-49" value="大数据分析服务" style="rounded=0;whiteSpace=wrap;html=1;shadow=0;glass=0;sketch=0;strokeColor=default;gradientColor=none;" parent="1" vertex="1">
          <mxGeometry x="611" y="570" width="89" height="40" as="geometry" />
        </mxCell>
        <mxCell id="6hzJFKLqSvzQCjT4C_rZ-50" value="微服务" style="text;html=1;strokeColor=none;fillColor=none;align=center;verticalAlign=middle;whiteSpace=wrap;rounded=0;" parent="1" vertex="1">
          <mxGeometry x="40" y="210" width="60" height="30" as="geometry" />
        </mxCell>
        <mxCell id="6hzJFKLqSvzQCjT4C_rZ-51" value="" style="rounded=1;whiteSpace=wrap;html=1;shadow=0;glass=0;sketch=0;strokeColor=#82b366;fillColor=#d5e8d4;" parent="1" vertex="1">
          <mxGeometry x="50" y="310" width="170" height="90" as="geometry" />
        </mxCell>
        <mxCell id="6hzJFKLqSvzQCjT4C_rZ-52" value="" style="rounded=1;whiteSpace=wrap;html=1;shadow=0;glass=0;sketch=0;strokeColor=#b85450;fillColor=#f8cecc;" parent="1" vertex="1">
          <mxGeometry x="54" y="428" width="170" height="90" as="geometry" />
        </mxCell>
        <mxCell id="6hzJFKLqSvzQCjT4C_rZ-54" value="" style="rounded=1;whiteSpace=wrap;html=1;shadow=0;glass=0;sketch=0;strokeColor=#82b366;fillColor=#d5e8d4;" parent="1" vertex="1">
          <mxGeometry x="540" y="230" width="190" height="80" as="geometry" />
        </mxCell>
        <mxCell id="6hzJFKLqSvzQCjT4C_rZ-55" value="" style="rounded=1;whiteSpace=wrap;html=1;shadow=0;glass=0;sketch=0;strokeColor=#9673a6;fillColor=#e1d5e7;" parent="1" vertex="1">
          <mxGeometry x="540" y="330" width="190" height="80" as="geometry" />
        </mxCell>
        <mxCell id="6hzJFKLqSvzQCjT4C_rZ-56" value="" style="rounded=1;whiteSpace=wrap;html=1;shadow=0;glass=0;sketch=0;strokeColor=#666666;fillColor=#f5f5f5;fontColor=#333333;" parent="1" vertex="1">
          <mxGeometry x="540" y="430" width="190" height="80" as="geometry" />
        </mxCell>
        <mxCell id="6hzJFKLqSvzQCjT4C_rZ-57" value="用户中心" style="rounded=0;whiteSpace=wrap;html=1;shadow=0;glass=0;sketch=0;strokeColor=default;gradientColor=none;" parent="1" vertex="1">
          <mxGeometry x="74" y="340" width="50" height="40" as="geometry" />
        </mxCell>
        <mxCell id="6hzJFKLqSvzQCjT4C_rZ-58" value="交易中心" style="rounded=0;whiteSpace=wrap;html=1;shadow=0;glass=0;sketch=0;strokeColor=default;gradientColor=none;" parent="1" vertex="1">
          <mxGeometry x="144" y="340" width="50" height="40" as="geometry" />
        </mxCell>
        <mxCell id="6hzJFKLqSvzQCjT4C_rZ-62" value="号码服务" style="rounded=0;whiteSpace=wrap;html=1;shadow=0;glass=0;sketch=0;strokeColor=default;gradientColor=none;" parent="1" vertex="1">
          <mxGeometry x="74" y="457" width="50" height="40" as="geometry" />
        </mxCell>
        <mxCell id="6hzJFKLqSvzQCjT4C_rZ-63" value="报表服务" style="rounded=0;whiteSpace=wrap;html=1;shadow=0;glass=0;sketch=0;strokeColor=default;gradientColor=none;" parent="1" vertex="1">
          <mxGeometry x="144" y="458" width="50" height="40" as="geometry" />
        </mxCell>
        <mxCell id="6hzJFKLqSvzQCjT4C_rZ-65" value="商户平台" style="text;html=1;strokeColor=none;fillColor=none;align=center;verticalAlign=middle;whiteSpace=wrap;rounded=0;" parent="1" vertex="1">
          <mxGeometry x="49" y="309" width="60" height="30" as="geometry" />
        </mxCell>
        <mxCell id="6hzJFKLqSvzQCjT4C_rZ-66" value="公用服务" style="text;html=1;strokeColor=none;fillColor=none;align=center;verticalAlign=middle;whiteSpace=wrap;rounded=0;" parent="1" vertex="1">
          <mxGeometry x="53" y="426" width="60" height="30" as="geometry" />
        </mxCell>
        <mxCell id="6hzJFKLqSvzQCjT4C_rZ-98" style="edgeStyle=orthogonalEdgeStyle;rounded=0;orthogonalLoop=1;jettySize=auto;html=1;entryX=0;entryY=0.5;entryDx=0;entryDy=0;exitX=0.5;exitY=1;exitDx=0;exitDy=0;" parent="1" source="6hzJFKLqSvzQCjT4C_rZ-67" target="6hzJFKLqSvzQCjT4C_rZ-69" edge="1">
          <mxGeometry relative="1" as="geometry">
            <Array as="points">
              <mxPoint x="170" y="300" />
            </Array>
          </mxGeometry>
        </mxCell>
        <mxCell id="6hzJFKLqSvzQCjT4C_rZ-67" value="nacos" style="rounded=0;whiteSpace=wrap;html=1;shadow=0;glass=0;sketch=0;strokeColor=default;gradientColor=none;" parent="1" vertex="1">
          <mxGeometry x="110" y="230" width="120" height="60" as="geometry" />
        </mxCell>
        <mxCell id="6hzJFKLqSvzQCjT4C_rZ-68" value="2G短信平台" style="text;html=1;strokeColor=none;fillColor=none;align=center;verticalAlign=middle;whiteSpace=wrap;rounded=0;" parent="1" vertex="1">
          <mxGeometry x="248" y="240" width="70" height="30" as="geometry" />
        </mxCell>
        <mxCell id="6hzJFKLqSvzQCjT4C_rZ-69" value="短信网关" style="rounded=0;whiteSpace=wrap;html=1;shadow=0;glass=0;sketch=0;strokeColor=default;gradientColor=none;" parent="1" vertex="1">
          <mxGeometry x="248" y="270" width="120" height="60" as="geometry" />
        </mxCell>
        <mxCell id="6hzJFKLqSvzQCjT4C_rZ-70" value="短信分发服务" style="rounded=0;whiteSpace=wrap;html=1;shadow=0;glass=0;sketch=0;strokeColor=default;gradientColor=none;" parent="1" vertex="1">
          <mxGeometry x="248" y="350" width="120" height="60" as="geometry" />
        </mxCell>
        <mxCell id="6hzJFKLqSvzQCjT4C_rZ-71" value="短信配置服务" style="rounded=0;whiteSpace=wrap;html=1;shadow=0;glass=0;sketch=0;strokeColor=default;gradientColor=none;" parent="1" vertex="1">
          <mxGeometry x="248" y="430" width="120" height="60" as="geometry" />
        </mxCell>
        <mxCell id="6hzJFKLqSvzQCjT4C_rZ-72" value="通道前置服务" style="rounded=0;whiteSpace=wrap;html=1;shadow=0;glass=0;sketch=0;strokeColor=default;gradientColor=none;" parent="1" vertex="1">
          <mxGeometry x="380" y="270" width="120" height="60" as="geometry" />
        </mxCell>
        <mxCell id="6hzJFKLqSvzQCjT4C_rZ-93" style="edgeStyle=orthogonalEdgeStyle;rounded=0;orthogonalLoop=1;jettySize=auto;html=1;entryX=0.5;entryY=1;entryDx=0;entryDy=0;" parent="1" source="6hzJFKLqSvzQCjT4C_rZ-73" target="6hzJFKLqSvzQCjT4C_rZ-14" edge="1">
          <mxGeometry relative="1" as="geometry">
            <Array as="points">
              <mxPoint x="530" y="380" />
              <mxPoint x="530" y="210" />
              <mxPoint x="430" y="210" />
              <mxPoint x="430" y="110" />
              <mxPoint x="649" y="110" />
            </Array>
          </mxGeometry>
        </mxCell>
        <mxCell id="6hzJFKLqSvzQCjT4C_rZ-73" value="报告处理服务" style="rounded=0;whiteSpace=wrap;html=1;shadow=0;glass=0;sketch=0;strokeColor=default;gradientColor=none;" parent="1" vertex="1">
          <mxGeometry x="380" y="350" width="120" height="60" as="geometry" />
        </mxCell>
        <mxCell id="6hzJFKLqSvzQCjT4C_rZ-74" value="通道监控服务" style="rounded=0;whiteSpace=wrap;html=1;shadow=0;glass=0;sketch=0;strokeColor=default;gradientColor=none;" parent="1" vertex="1">
          <mxGeometry x="380" y="430" width="120" height="60" as="geometry" />
        </mxCell>
        <mxCell id="6hzJFKLqSvzQCjT4C_rZ-75" value="5G消息平台" style="text;html=1;strokeColor=none;fillColor=none;align=center;verticalAlign=middle;whiteSpace=wrap;rounded=0;" parent="1" vertex="1">
          <mxGeometry x="544" y="224" width="70" height="30" as="geometry" />
        </mxCell>
        <mxCell id="6hzJFKLqSvzQCjT4C_rZ-76" value="chatbot网关" style="rounded=0;whiteSpace=wrap;html=1;shadow=0;glass=0;sketch=0;strokeColor=default;gradientColor=none;" parent="1" vertex="1">
          <mxGeometry x="547" y="254" width="83" height="16" as="geometry" />
        </mxCell>
        <mxCell id="6hzJFKLqSvzQCjT4C_rZ-77" value="素材管理服务" style="rounded=0;whiteSpace=wrap;html=1;shadow=0;glass=0;sketch=0;strokeColor=default;gradientColor=none;" parent="1" vertex="1">
          <mxGeometry x="640" y="254" width="80" height="16" as="geometry" />
        </mxCell>
        <mxCell id="6hzJFKLqSvzQCjT4C_rZ-78" value="模板管理服务" style="rounded=0;whiteSpace=wrap;html=1;shadow=0;glass=0;sketch=0;strokeColor=default;gradientColor=none;" parent="1" vertex="1">
          <mxGeometry x="547" y="280" width="83" height="16" as="geometry" />
        </mxCell>
        <mxCell id="6hzJFKLqSvzQCjT4C_rZ-79" value="数据统计服务" style="rounded=0;whiteSpace=wrap;html=1;shadow=0;glass=0;sketch=0;strokeColor=default;gradientColor=none;" parent="1" vertex="1">
          <mxGeometry x="640" y="280" width="80" height="16" as="geometry" />
        </mxCell>
        <mxCell id="6hzJFKLqSvzQCjT4C_rZ-80" value="卡片消息平台" style="text;html=1;strokeColor=none;fillColor=none;align=center;verticalAlign=middle;whiteSpace=wrap;rounded=0;" parent="1" vertex="1">
          <mxGeometry x="544" y="428" width="76" height="30" as="geometry" />
        </mxCell>
        <mxCell id="6hzJFKLqSvzQCjT4C_rZ-81" value="卡片网关服务" style="rounded=0;whiteSpace=wrap;html=1;shadow=0;glass=0;sketch=0;strokeColor=default;gradientColor=none;" parent="1" vertex="1">
          <mxGeometry x="547" y="458" width="83" height="16" as="geometry" />
        </mxCell>
        <mxCell id="6hzJFKLqSvzQCjT4C_rZ-82" value="卡片分发服务" style="rounded=0;whiteSpace=wrap;html=1;shadow=0;glass=0;sketch=0;strokeColor=default;gradientColor=none;" parent="1" vertex="1">
          <mxGeometry x="640" y="458" width="80" height="16" as="geometry" />
        </mxCell>
        <mxCell id="6hzJFKLqSvzQCjT4C_rZ-83" value="卡片配置服务" style="rounded=0;whiteSpace=wrap;html=1;shadow=0;glass=0;sketch=0;strokeColor=default;gradientColor=none;" parent="1" vertex="1">
          <mxGeometry x="547" y="484" width="83" height="16" as="geometry" />
        </mxCell>
        <mxCell id="6hzJFKLqSvzQCjT4C_rZ-84" value="数据统计服务" style="rounded=0;whiteSpace=wrap;html=1;shadow=0;glass=0;sketch=0;strokeColor=default;gradientColor=none;" parent="1" vertex="1">
          <mxGeometry x="640" y="484" width="80" height="16" as="geometry" />
        </mxCell>
        <mxCell id="6hzJFKLqSvzQCjT4C_rZ-85" value="富信平台" style="text;html=1;strokeColor=none;fillColor=none;align=center;verticalAlign=middle;whiteSpace=wrap;rounded=0;" parent="1" vertex="1">
          <mxGeometry x="544" y="328" width="70" height="30" as="geometry" />
        </mxCell>
        <mxCell id="6hzJFKLqSvzQCjT4C_rZ-86" value="富信网关服务" style="rounded=0;whiteSpace=wrap;html=1;shadow=0;glass=0;sketch=0;strokeColor=default;gradientColor=none;" parent="1" vertex="1">
          <mxGeometry x="547" y="358" width="83" height="16" as="geometry" />
        </mxCell>
        <mxCell id="6hzJFKLqSvzQCjT4C_rZ-87" value="富信分发服务" style="rounded=0;whiteSpace=wrap;html=1;shadow=0;glass=0;sketch=0;strokeColor=default;gradientColor=none;" parent="1" vertex="1">
          <mxGeometry x="640" y="358" width="80" height="16" as="geometry" />
        </mxCell>
        <mxCell id="6hzJFKLqSvzQCjT4C_rZ-88" value="富信配置服务" style="rounded=0;whiteSpace=wrap;html=1;shadow=0;glass=0;sketch=0;strokeColor=default;gradientColor=none;" parent="1" vertex="1">
          <mxGeometry x="547" y="384" width="83" height="16" as="geometry" />
        </mxCell>
        <mxCell id="6hzJFKLqSvzQCjT4C_rZ-89" value="数据统计服务" style="rounded=0;whiteSpace=wrap;html=1;shadow=0;glass=0;sketch=0;strokeColor=default;gradientColor=none;" parent="1" vertex="1">
          <mxGeometry x="640" y="384" width="80" height="16" as="geometry" />
        </mxCell>
        <mxCell id="6hzJFKLqSvzQCjT4C_rZ-92" value="" style="endArrow=classic;startArrow=classic;html=1;rounded=0;edgeStyle=orthogonalEdgeStyle;entryX=0.25;entryY=0.833;entryDx=0;entryDy=0;entryPerimeter=0;" parent="1" target="6hzJFKLqSvzQCjT4C_rZ-16" edge="1">
          <mxGeometry width="50" height="50" relative="1" as="geometry">
            <mxPoint x="440" y="270" as="sourcePoint" />
            <mxPoint x="490" y="230" as="targetPoint" />
          </mxGeometry>
        </mxCell>
        <mxCell id="h-Orv2WO8ikRnsLiqmM1-1" value="rocketMQ" style="rounded=0;whiteSpace=wrap;html=1;shadow=0;glass=0;sketch=0;strokeColor=default;gradientColor=none;" vertex="1" parent="1">
          <mxGeometry x="240" y="570" width="60" height="40" as="geometry" />
        </mxCell>
        <mxCell id="h-Orv2WO8ikRnsLiqmM1-2" value="大数据" style="rounded=0;whiteSpace=wrap;html=1;shadow=0;glass=0;sketch=0;strokeColor=default;gradientColor=none;" vertex="1" parent="1">
          <mxGeometry x="318" y="570" width="60" height="40" as="geometry" />
        </mxCell>
      </root>
    </mxGraphModel>
  </diagram>
</mxfile>
